<svg width="20" height="20" viewBox="0 0 20 20" fill="none" xmlns="http://www.w3.org/2000/svg">
<path d="M15.8333 3.33334H4.16667C3.24619 3.33334 2.5 4.07953 2.5 5C2.5 5.92048 3.24619 6.66667 4.16667 6.66667H15.8333C16.7538 6.66667 17.5 5.92048 17.5 5C17.5 4.07953 16.7538 3.33334 15.8333 3.33334Z" stroke="white" stroke-width="2" stroke-linecap="round" stroke-linejoin="round"/>
<path d="M4.16669 6.66666V15C4.16669 15.442 4.34228 15.8659 4.65484 16.1785C4.9674 16.4911 5.39133 16.6667 5.83335 16.6667H14.1667C14.6087 16.6667 15.0326 16.4911 15.3452 16.1785C15.6578 15.8659 15.8334 15.442 15.8334 15V6.66666" fill="white"/>
<path d="M4.16669 6.66666V15C4.16669 15.442 4.34228 15.8659 4.65484 16.1785C4.9674 16.4911 5.39133 16.6667 5.83335 16.6667H14.1667C14.6087 16.6667 15.0326 16.4911 15.3452 16.1785C15.6578 15.8659 15.8334 15.442 15.8334 15V6.66666" stroke="white" stroke-width="2" stroke-linecap="round" stroke-linejoin="round"/>
<path d="M8.33331 10H11.6666" stroke="#FFD60A" stroke-width="2" stroke-linecap="round" stroke-linejoin="round"/>
</svg>
