<svg width="26" height="26" viewBox="0 0 26 26" fill="none" xmlns="http://www.w3.org/2000/svg">
<path d="M9.75 4.33334H5.41666C4.81835 4.33334 4.33333 4.81837 4.33333 5.41668V9.75001C4.33333 10.3483 4.81835 10.8333 5.41666 10.8333H9.75C10.3483 10.8333 10.8333 10.3483 10.8333 9.75001V5.41668C10.8333 4.81837 10.3483 4.33334 9.75 4.33334Z" fill="#FFD60A" stroke="#FFD60A" stroke-width="2" stroke-linecap="round" stroke-linejoin="round"/>
<path d="M9.75 15.1667H5.41666C4.81835 15.1667 4.33333 15.6517 4.33333 16.25V20.5833C4.33333 21.1816 4.81835 21.6667 5.41666 21.6667H9.75C10.3483 21.6667 10.8333 21.1816 10.8333 20.5833V16.25C10.8333 15.6517 10.3483 15.1667 9.75 15.1667Z" fill="#FFD60A" stroke="#FFD60A" stroke-width="2" stroke-linecap="round" stroke-linejoin="round"/>
<path d="M20.5833 15.1667H16.25C15.6517 15.1667 15.1667 15.6517 15.1667 16.25V20.5833C15.1667 21.1816 15.6517 21.6667 16.25 21.6667H20.5833C21.1816 21.6667 21.6667 21.1816 21.6667 20.5833V16.25C21.6667 15.6517 21.1816 15.1667 20.5833 15.1667Z" fill="#FFD60A" stroke="#FFD60A" stroke-width="2" stroke-linecap="round" stroke-linejoin="round"/>
<path d="M15.1667 7.58334H21.6667" stroke="#FFD60A" stroke-width="2" stroke-linecap="round" stroke-linejoin="round"/>
<path d="M18.4167 4.33334V10.8333" stroke="#FFD60A" stroke-width="2" stroke-linecap="round" stroke-linejoin="round"/>
</svg>
