<svg width="20" height="20" viewBox="0 0 20 20" fill="none" xmlns="http://www.w3.org/2000/svg">
<path d="M2.5 2.5L17.5 17.5" stroke="#606770" stroke-width="2" stroke-linecap="round" stroke-linejoin="round"/>
<path d="M8.82 8.82251C8.50727 9.13502 8.33149 9.55897 8.33133 10.0011C8.33117 10.4432 8.50665 10.8673 8.81917 11.18C9.13168 11.4927 9.55563 11.6685 9.99774 11.6687C10.4399 11.6688 10.8639 11.4934 11.1767 11.1808" stroke="#606770" stroke-width="2" stroke-linecap="round" stroke-linejoin="round"/>
<path d="M14.4642 14.4574C13.105 15.3741 11.6183 15.8332 10 15.8332C6.66667 15.8332 3.88917 13.8891 1.66667 9.99989C2.80751 8.00405 4.09417 6.52072 5.52667 5.54905M7.8025 4.47072C8.51702 4.26632 9.25683 4.16392 10 4.16655C13.3333 4.16655 16.1108 6.11072 18.3333 9.99989C17.685 11.1341 16.99 12.1032 16.2475 12.9066L7.8025 4.47072Z" stroke="#606770" stroke-width="2" stroke-linecap="round" stroke-linejoin="round"/>
</svg>
