<svg width="20" height="20" viewBox="0 0 20 20" fill="none" xmlns="http://www.w3.org/2000/svg">
<g clip-path="url(#clip0_742_2)">
<path d="M15.8333 2.5H12.5C12.058 2.5 11.634 2.67559 11.3215 2.98816C11.0089 3.30072 10.8333 3.72464 10.8333 4.16667V14.1667C10.8333 15.0507 11.1845 15.8986 11.8096 16.5237C12.4347 17.1488 13.2826 17.5 14.1666 17.5C15.0507 17.5 15.8985 17.1488 16.5237 16.5237C17.1488 15.8986 17.5 15.0507 17.5 14.1667V4.16667C17.5 3.72464 17.3244 3.30072 17.0118 2.98816C16.6993 2.67559 16.2753 2.5 15.8333 2.5Z" fill="white" stroke="white" stroke-width="2" stroke-linecap="round" stroke-linejoin="round"/>
<path d="M10.8333 6.125L9.16664 4.45833C8.8541 4.14588 8.43025 3.97035 7.98831 3.97035C7.54637 3.97035 7.12252 4.14588 6.80998 4.45833L4.45331 6.815C4.14086 7.12754 3.96533 7.55139 3.96533 7.99333C3.96533 8.43527 4.14086 8.85912 4.45331 9.17166L11.9533 16.6717" stroke="white" stroke-width="2" stroke-linecap="round" stroke-linejoin="round"/>
<path d="M6.08333 10.8333H4.16667C3.72464 10.8333 3.30072 11.0089 2.98816 11.3215C2.67559 11.634 2.5 12.058 2.5 12.5V15.8333C2.5 16.2754 2.67559 16.6993 2.98816 17.0118C3.30072 17.3244 3.72464 17.5 4.16667 17.5H14.1667" stroke="white" stroke-width="2" stroke-linecap="round" stroke-linejoin="round"/>
<path d="M14.1667 14.1667V14.175" stroke="#FFD60A" stroke-width="2" stroke-linecap="round" stroke-linejoin="round"/>
</g>
<defs>
<clipPath id="clip0_742_2">
<rect width="20" height="20" fill="white"/>
</clipPath>
</defs>
</svg>
