<svg width="26" height="26" viewBox="0 0 26 26" fill="none" xmlns="http://www.w3.org/2000/svg">
<path d="M3.25 21.6667L4.65833 17.4417C3.44115 15.6415 3.00083 13.5096 3.41924 11.4425C3.83765 9.37539 5.08632 7.51366 6.93308 6.20348C8.77985 4.8933 11.099 4.22382 13.4594 4.31952C15.8198 4.41523 18.0608 5.2696 19.7657 6.72379C21.4706 8.17797 22.5234 10.133 22.7284 12.2254C22.9334 14.3178 22.2765 16.4052 20.88 18.0994C19.4835 19.7936 17.4424 20.9794 15.1361 21.4363C12.8298 21.8932 10.4154 21.5901 8.34167 20.5833L3.25 21.6667" stroke="#6B6A65" stroke-width="2" stroke-linecap="round" stroke-linejoin="round"/>
<path d="M13 13V13.01" stroke="#6B6A65" stroke-width="2" stroke-linecap="round" stroke-linejoin="round"/>
<path d="M8.66666 13V13.01" stroke="#6B6A65" stroke-width="2" stroke-linecap="round" stroke-linejoin="round"/>
<path d="M17.3333 13V13.01" stroke="#6B6A65" stroke-width="2" stroke-linecap="round" stroke-linejoin="round"/>
</svg>
