<svg width="20" height="20" viewBox="0 0 20 20" fill="none" xmlns="http://www.w3.org/2000/svg">
<path d="M3.9025 4.16667H12.9308C13.049 4.16634 13.1661 4.18929 13.2754 4.23422C13.3848 4.27914 13.4842 4.34516 13.568 4.4285C13.6518 4.51184 13.7183 4.61087 13.7639 4.71994C13.8094 4.82901 13.833 4.94598 13.8333 5.06417V12.2433C13.8333 14.2267 12.2167 15.8333 10.2225 15.8333H6.61083C4.61667 15.8333 3 14.2258 3 12.2433V5.06417C3.00033 4.94598 3.02393 4.82901 3.06946 4.71994C3.115 4.61087 3.18157 4.51184 3.26537 4.4285C3.34918 4.34516 3.44858 4.27914 3.55789 4.23422C3.66721 4.18929 3.78431 4.16634 3.9025 4.16667" stroke="#23221D" stroke-width="2" stroke-linecap="round" stroke-linejoin="round"/>
<path d="M13.8333 6.66666H15.9166C17.0666 6.66666 18 7.5375 18 8.61083V10.5558C18 11.6292 17.0666 12.5 15.9166 12.5H13.8333" stroke="#23221D" stroke-width="2" stroke-linecap="round" stroke-linejoin="round"/>
</svg>
