<svg width="26" height="26" viewBox="0 0 26 26" fill="none" xmlns="http://www.w3.org/2000/svg">
<path d="M9.75 5.41666H7.58333C7.0087 5.41666 6.45759 5.64493 6.05127 6.05126C5.64494 6.45759 5.41666 7.00869 5.41666 7.58332V20.5833C5.41666 21.158 5.64494 21.7091 6.05127 22.1154C6.45759 22.5217 7.0087 22.75 7.58333 22.75H18.4167C18.9913 22.75 19.5424 22.5217 19.9487 22.1154C20.3551 21.7091 20.5833 21.158 20.5833 20.5833V7.58332C20.5833 7.00869 20.3551 6.45759 19.9487 6.05126C19.5424 5.64493 18.9913 5.41666 18.4167 5.41666H16.25" fill="#FFD60A"/>
<path d="M9.75 5.41666H7.58333C7.0087 5.41666 6.45759 5.64493 6.05127 6.05126C5.64494 6.45759 5.41666 7.00869 5.41666 7.58332V20.5833C5.41666 21.158 5.64494 21.7091 6.05127 22.1154C6.45759 22.5217 7.0087 22.75 7.58333 22.75H18.4167C18.9913 22.75 19.5424 22.5217 19.9487 22.1154C20.3551 21.7091 20.5833 21.158 20.5833 20.5833V7.58332C20.5833 7.00869 20.3551 6.45759 19.9487 6.05126C19.5424 5.64493 18.9913 5.41666 18.4167 5.41666H16.25" stroke="#FFD60A" stroke-width="2" stroke-linecap="round" stroke-linejoin="round"/>
<path d="M14.0833 3.25H11.9167C10.72 3.25 9.75 4.22005 9.75 5.41667C9.75 6.61328 10.72 7.58333 11.9167 7.58333H14.0833C15.28 7.58333 16.25 6.61328 16.25 5.41667C16.25 4.22005 15.28 3.25 14.0833 3.25Z" stroke="#FFD60A" stroke-width="2" stroke-linecap="round" stroke-linejoin="round"/>
<path d="M9.75 13H9.76" stroke="white" stroke-width="2" stroke-linecap="round" stroke-linejoin="round"/>
<path d="M14.0833 13H16.25" stroke="white" stroke-width="2" stroke-linecap="round" stroke-linejoin="round"/>
<path d="M9.75 17.3333H9.76" stroke="white" stroke-width="2" stroke-linecap="round" stroke-linejoin="round"/>
<path d="M14.0833 17.3333H16.25" stroke="white" stroke-width="2" stroke-linecap="round" stroke-linejoin="round"/>
</svg>