<svg width="20" height="20" viewBox="0 0 20 20" fill="none" xmlns="http://www.w3.org/2000/svg">
<g clip-path="url(#clip0_743_2)">
<path d="M9.99998 16.6667C10.9205 16.6667 11.6666 15.9205 11.6666 15C11.6666 14.0795 10.9205 13.3333 9.99998 13.3333C9.07951 13.3333 8.33331 14.0795 8.33331 15C8.33331 15.9205 9.07951 16.6667 9.99998 16.6667Z" stroke="#23221D" stroke-width="2" stroke-linecap="round" stroke-linejoin="round"/>
<path d="M5.83335 6.66667C6.75383 6.66667 7.50002 5.92048 7.50002 5C7.50002 4.07953 6.75383 3.33334 5.83335 3.33334C4.91288 3.33334 4.16669 4.07953 4.16669 5C4.16669 5.92048 4.91288 6.66667 5.83335 6.66667Z" stroke="#23221D" stroke-width="2" stroke-linecap="round" stroke-linejoin="round"/>
<path d="M14.1667 6.66667C15.0871 6.66667 15.8333 5.92048 15.8333 5C15.8333 4.07953 15.0871 3.33334 14.1667 3.33334C13.2462 3.33334 12.5 4.07953 12.5 5C12.5 5.92048 13.2462 6.66667 14.1667 6.66667Z" stroke="#23221D" stroke-width="2" stroke-linecap="round" stroke-linejoin="round"/>
<path d="M5.83331 6.66666V8.33333C5.83331 8.77536 6.00891 9.19928 6.32147 9.51184C6.63403 9.8244 7.05795 10 7.49998 10H12.5C12.942 10 13.3659 9.8244 13.6785 9.51184C13.9911 9.19928 14.1666 8.77536 14.1666 8.33333V6.66666" stroke="#23221D" stroke-width="2" stroke-linecap="round" stroke-linejoin="round"/>
<path d="M10 10V13.3333" stroke="#23221D" stroke-width="2" stroke-linecap="round" stroke-linejoin="round"/>
</g>
<defs>
<clipPath id="clip0_743_2">
<rect width="20" height="20" fill="white"/>
</clipPath>
</defs>
</svg>
