<svg width="26" height="26" viewBox="0 0 26 26" fill="none" xmlns="http://www.w3.org/2000/svg">
<path d="M14.0833 5.41666H22.75" stroke="#6B6A65" stroke-width="2" stroke-linecap="round" stroke-linejoin="round"/>
<path d="M14.0833 9.75H19.5" stroke="#6B6A65" stroke-width="2" stroke-linecap="round" stroke-linejoin="round"/>
<path d="M14.0833 16.25H22.75" stroke="#6B6A65" stroke-width="2" stroke-linecap="round" stroke-linejoin="round"/>
<path d="M14.0833 20.5833H19.5" stroke="#6B6A65" stroke-width="2" stroke-linecap="round" stroke-linejoin="round"/>
<path d="M8.66667 4.33334H4.33333C3.73502 4.33334 3.25 4.81837 3.25 5.41668V9.75001C3.25 10.3483 3.73502 10.8333 4.33333 10.8333H8.66667C9.26498 10.8333 9.75 10.3483 9.75 9.75001V5.41668C9.75 4.81837 9.26498 4.33334 8.66667 4.33334Z" stroke="#6B6A65" stroke-width="2" stroke-linecap="round" stroke-linejoin="round"/>
<path d="M8.66667 15.1667H4.33333C3.73502 15.1667 3.25 15.6517 3.25 16.25V20.5833C3.25 21.1816 3.73502 21.6667 4.33333 21.6667H8.66667C9.26498 21.6667 9.75 21.1816 9.75 20.5833V16.25C9.75 15.6517 9.26498 15.1667 8.66667 15.1667Z" stroke="#6B6A65" stroke-width="2" stroke-linecap="round" stroke-linejoin="round"/>
</svg>
